<mxfile host="drawio-plugin" modified="2021-11-04T19:58:32.243Z" agent="5.0 (X11; Linux x86_64) AppleWebKit/537.36 (KHTML, like Gecko) Chrome/87.0.4280.141 Safari/537.36" etag="kMHYafK3NekVtcveDVvA" version="14.7.4" type="embed"><diagram id="0Mp65MPM03b1KLWFW2-w" name="Page-1"><mxGraphModel dx="830" dy="330" grid="1" gridSize="10" guides="1" tooltips="1" connect="1" arrows="1" fold="1" page="1" pageScale="1" pageWidth="850" pageHeight="1100" math="0" shadow="0"><root><mxCell id="0"/><mxCell id="1" parent="0"/><mxCell id="35" value="Donation add" style="rounded=0;whiteSpace=wrap;html=1;" parent="1" vertex="1"><mxGeometry x="730" y="330" width="220" height="100" as="geometry"/></mxCell><mxCell id="2" value="register" style="rounded=0;whiteSpace=wrap;html=1;fillColor=#ffff88;strokeColor=#36393d;" parent="1" vertex="1"><mxGeometry x="230" y="90" width="110" height="40" as="geometry"/></mxCell><mxCell id="12" style="edgeStyle=orthogonalEdgeStyle;rounded=0;orthogonalLoop=1;jettySize=auto;html=1;entryX=0;entryY=0.5;entryDx=0;entryDy=0;entryPerimeter=0;" parent="1" source="3" target="4" edge="1"><mxGeometry relative="1" as="geometry"/></mxCell><mxCell id="3" value="UserRegister&lt;br&gt;&lt;br&gt;email&lt;br&gt;password" style="rounded=0;whiteSpace=wrap;html=1;fillColor=#d5e8d4;strokeColor=#82b366;" parent="1" vertex="1"><mxGeometry x="280" y="160" width="130" height="80" as="geometry"/></mxCell><mxCell id="4" value="DB" style="shape=cylinder3;whiteSpace=wrap;html=1;boundedLbl=1;backgroundOutline=1;size=15;fillColor=#eeeeee;strokeColor=#36393d;" parent="1" vertex="1"><mxGeometry x="530" y="160" width="60" height="80" as="geometry"/></mxCell><mxCell id="5" value="User&lt;br&gt;&lt;br&gt;id&lt;br&gt;first name&lt;br&gt;last name&lt;br&gt;email&lt;br&gt;password" style="rounded=0;whiteSpace=wrap;html=1;fillColor=#eeeeee;strokeColor=#36393d;" parent="1" vertex="1"><mxGeometry x="630" y="160" width="140" height="120" as="geometry"/></mxCell><mxCell id="6" value="user list" style="rounded=0;whiteSpace=wrap;html=1;fillColor=#ffff88;strokeColor=#36393d;" parent="1" vertex="1"><mxGeometry x="230" y="300" width="110" height="40" as="geometry"/></mxCell><mxCell id="11" style="edgeStyle=orthogonalEdgeStyle;rounded=0;orthogonalLoop=1;jettySize=auto;html=1;" parent="1" source="10" edge="1"><mxGeometry relative="1" as="geometry"><mxPoint x="425" y="430" as="targetPoint"/></mxGeometry></mxCell><mxCell id="10" value="DB" style="shape=cylinder3;whiteSpace=wrap;html=1;boundedLbl=1;backgroundOutline=1;size=15;fillColor=#eeeeee;strokeColor=#36393d;" parent="1" vertex="1"><mxGeometry x="530" y="390" width="60" height="80" as="geometry"/></mxCell><mxCell id="13" value="profile" style="rounded=0;whiteSpace=wrap;html=1;fillColor=#ffff88;strokeColor=#36393d;" parent="1" vertex="1"><mxGeometry x="230" y="580" width="110" height="40" as="geometry"/></mxCell><mxCell id="14" value="Full name&lt;br&gt;active" style="rounded=0;whiteSpace=wrap;html=1;fillColor=#e1d5e7;strokeColor=#9673a6;" parent="1" vertex="1"><mxGeometry x="120" y="390" width="120" height="60" as="geometry"/></mxCell><mxCell id="15" value="UserListInfo&lt;br&gt;&lt;br&gt;id&lt;br&gt;name&lt;br&gt;" style="rounded=0;whiteSpace=wrap;html=1;fillColor=#d5e8d4;strokeColor=#82b366;" parent="1" vertex="1"><mxGeometry x="298.75" y="395" width="125" height="70" as="geometry"/></mxCell><mxCell id="18" style="edgeStyle=orthogonalEdgeStyle;rounded=0;orthogonalLoop=1;jettySize=auto;html=1;entryX=1;entryY=0.32;entryDx=0;entryDy=0;entryPerimeter=0;" parent="1" source="16" target="17" edge="1"><mxGeometry relative="1" as="geometry"/></mxCell><mxCell id="16" value="DB" style="shape=cylinder3;whiteSpace=wrap;html=1;boundedLbl=1;backgroundOutline=1;size=15;fillColor=#eeeeee;strokeColor=#36393d;" parent="1" vertex="1"><mxGeometry x="530" y="620" width="60" height="80" as="geometry"/></mxCell><mxCell id="17" value="UserProfile&lt;br&gt;&lt;br&gt;id&lt;br&gt;name&lt;br&gt;email" style="rounded=0;whiteSpace=wrap;html=1;fillColor=#d5e8d4;strokeColor=#82b366;" parent="1" vertex="1"><mxGeometry x="292.5" y="630" width="137.5" height="100" as="geometry"/></mxCell><mxCell id="19" value="change password" style="rounded=0;whiteSpace=wrap;html=1;fillColor=#ffff88;strokeColor=#36393d;" parent="1" vertex="1"><mxGeometry x="230" y="770" width="110" height="40" as="geometry"/></mxCell><mxCell id="21" value="DB" style="shape=cylinder3;whiteSpace=wrap;html=1;boundedLbl=1;backgroundOutline=1;size=15;fillColor=#eeeeee;strokeColor=#36393d;" parent="1" vertex="1"><mxGeometry x="530" y="830" width="60" height="80" as="geometry"/></mxCell><mxCell id="24" style="edgeStyle=orthogonalEdgeStyle;rounded=0;orthogonalLoop=1;jettySize=auto;html=1;entryX=0;entryY=0;entryDx=0;entryDy=52.5;entryPerimeter=0;" parent="1" source="23" target="21" edge="1"><mxGeometry relative="1" as="geometry"/></mxCell><mxCell id="23" value="ChangePassword&lt;br&gt;&lt;br&gt;id&lt;br&gt;newPassword" style="rounded=0;whiteSpace=wrap;html=1;fillColor=#d5e8d4;strokeColor=#82b366;" parent="1" vertex="1"><mxGeometry x="300" y="850" width="125" height="70" as="geometry"/></mxCell><mxCell id="25" value="password" style="rounded=0;whiteSpace=wrap;html=1;fillColor=#e1d5e7;strokeColor=#9673a6;" parent="1" vertex="1"><mxGeometry x="150" y="850" width="120" height="60" as="geometry"/></mxCell><mxCell id="28" style="edgeStyle=orthogonalEdgeStyle;rounded=0;orthogonalLoop=1;jettySize=auto;html=1;entryX=0;entryY=0.5;entryDx=0;entryDy=0;entryPerimeter=0;" parent="1" source="26" target="27" edge="1"><mxGeometry relative="1" as="geometry"/></mxCell><mxCell id="26" value="AddDonation" style="rounded=0;whiteSpace=wrap;html=1;fillColor=#d5e8d4;strokeColor=#82b366;" parent="1" vertex="1"><mxGeometry x="680" y="520" width="120" height="40" as="geometry"/></mxCell><mxCell id="27" value="DB" style="shape=cylinder3;whiteSpace=wrap;html=1;boundedLbl=1;backgroundOutline=1;size=15;fillColor=#eeeeee;strokeColor=#36393d;" parent="1" vertex="1"><mxGeometry x="900" y="500" width="60" height="80" as="geometry"/></mxCell><mxCell id="46" style="edgeStyle=orthogonalEdgeStyle;rounded=0;orthogonalLoop=1;jettySize=auto;html=1;entryX=1;entryY=0.5;entryDx=0;entryDy=0;" edge="1" parent="1" source="29" target="32"><mxGeometry relative="1" as="geometry"/></mxCell><mxCell id="29" value="DB" style="shape=cylinder3;whiteSpace=wrap;html=1;boundedLbl=1;backgroundOutline=1;size=15;fillColor=#eeeeee;strokeColor=#36393d;" parent="1" vertex="1"><mxGeometry x="900" y="620" width="60" height="80" as="geometry"/></mxCell><mxCell id="32" value="Set&amp;lt;DonationInfo&amp;gt;" style="rounded=0;whiteSpace=wrap;html=1;fillColor=#d5e8d4;strokeColor=#82b366;" parent="1" vertex="1"><mxGeometry x="680" y="640" width="120" height="40" as="geometry"/></mxCell><mxCell id="33" value="AddDonation donation" style="rounded=0;whiteSpace=wrap;html=1;fillColor=#dae8fc;strokeColor=#6c8ebf;" parent="1" vertex="1"><mxGeometry x="730" y="400" width="140" height="40" as="geometry"/></mxCell><mxCell id="37" value="Donate" style="rounded=0;whiteSpace=wrap;html=1;fillColor=#e1d5e7;strokeColor=#9673a6;" parent="1" vertex="1"><mxGeometry x="880" y="435" width="80" height="30" as="geometry"/></mxCell><mxCell id="38" value="My donations" style="rounded=0;whiteSpace=wrap;html=1;" parent="1" vertex="1"><mxGeometry x="690" y="720" width="220" height="100" as="geometry"/></mxCell><mxCell id="39" value="Set&amp;lt;DonationInfo&amp;gt; donations" style="rounded=0;whiteSpace=wrap;html=1;fillColor=#dae8fc;strokeColor=#6c8ebf;" parent="1" vertex="1"><mxGeometry x="700" y="790" width="140" height="40" as="geometry"/></mxCell><mxCell id="40" value="@Get" style="rounded=0;whiteSpace=wrap;html=1;fillColor=#fff2cc;strokeColor=#d6b656;" parent="1" vertex="1"><mxGeometry x="730" y="300" width="70" height="30" as="geometry"/></mxCell><mxCell id="41" value="Donation add" style="rounded=0;whiteSpace=wrap;html=1;" parent="1" vertex="1"><mxGeometry x="1000" y="330" width="220" height="100" as="geometry"/></mxCell><mxCell id="42" value="@Post" style="rounded=0;whiteSpace=wrap;html=1;fillColor=#fff2cc;strokeColor=#d6b656;" parent="1" vertex="1"><mxGeometry x="1000" y="300" width="70" height="30" as="geometry"/></mxCell><mxCell id="43" value="Donate" style="rounded=0;whiteSpace=wrap;html=1;fillColor=#e1d5e7;strokeColor=#9673a6;" parent="1" vertex="1"><mxGeometry x="1140" y="430" width="80" height="30" as="geometry"/></mxCell><mxCell id="44" value="AddDonation donation" style="rounded=0;whiteSpace=wrap;html=1;fillColor=#dae8fc;strokeColor=#6c8ebf;" parent="1" vertex="1"><mxGeometry x="1000" y="430" width="140" height="40" as="geometry"/></mxCell><mxCell id="45" value="@ModelAttribute" style="rounded=0;whiteSpace=wrap;html=1;fillColor=#d5e8d4;strokeColor=#82b366;" parent="1" vertex="1"><mxGeometry x="1000" y="400" width="100" height="30" as="geometry"/></mxCell></root></mxGraphModel></diagram></mxfile>